<svg width="69" height="67" viewBox="0 0 69 67" fill="none" xmlns="http://www.w3.org/2000/svg">
<g filter="url(#filter0_dd_11964_16657)">
<path d="M37.3602 33.3605C37.3155 33.2014 37.2096 33.0666 37.0656 32.9855C36.9216 32.9044 36.7513 32.8838 36.5921 32.928C36.4911 32.9564 36.3897 32.984 36.2879 33.0107C36.2062 33.0291 36.1291 33.0638 36.0611 33.1126C35.9932 33.1615 35.9357 33.2236 35.8923 33.2951C35.8488 33.3667 35.8202 33.4462 35.8082 33.5291C35.7962 33.6119 35.801 33.6963 35.8223 33.7773C35.8436 33.8582 35.881 33.9341 35.9323 34.0002C35.9836 34.0664 36.0477 34.1216 36.1207 34.1624C36.1938 34.2033 36.2743 34.229 36.3576 34.2381C36.4408 34.2471 36.525 34.2393 36.6051 34.2151C36.7133 34.1866 36.8209 34.1574 36.9277 34.1276C37.0867 34.0831 37.2215 33.9773 37.3025 33.8335C37.3836 33.6897 37.4043 33.5196 37.3602 33.3605Z" fill="#408F95"/>
<path d="M63.9115 37.2302C61.3434 37.8711 58.6524 37.8305 56.1047 37.1126C56.5183 35.8562 56.7541 34.5482 56.8055 33.2266C56.9782 28.5631 54.8808 24.714 50.7399 22.0952C48.8082 20.8879 46.6802 20.0276 44.4521 19.5533C43.2662 19.2965 42.1007 19.1207 41.1993 19.0065C41.3934 18.2632 41.6366 17.5335 41.9271 16.8223C41.9757 16.7113 41.991 16.5885 41.9709 16.469C41.9508 16.3495 41.8964 16.2384 41.8142 16.1494C41.732 16.0603 41.6256 15.9972 41.5081 15.9676C41.3905 15.9381 41.2669 15.9435 41.1524 15.9831C38.1695 17.0239 35.54 18.8838 33.5652 21.3498C31.0967 21.6312 29.175 22.6283 28.0063 24.2367C28.0017 24.2431 27.9965 24.2506 27.9921 24.2572C27.87 24.4397 25.1643 28.3893 20.4408 27.9123C22.0134 26.4485 24.8625 23.2183 25.5705 18.5048C26.5051 12.2857 24.8169 7.79125 23.7418 5.68408C25.7482 6.37838 29.4355 8.36788 31.0717 13.8385C31.1382 14.0881 31.8899 16.6809 34.8055 18.4192C34.9475 18.5038 35.1173 18.5285 35.2775 18.488C35.4377 18.4474 35.5753 18.3449 35.6599 18.2029C35.7445 18.0609 35.7693 17.8912 35.7287 17.7309C35.6882 17.5707 35.5856 17.4332 35.4437 17.3485C32.9051 15.8354 32.2814 13.5385 32.2761 13.5179C32.274 13.5094 32.2716 13.5007 32.269 13.4922C29.7433 5.02962 22.8172 4.12872 22.5235 4.095C22.4035 4.08114 22.282 4.10244 22.1739 4.1563C22.0658 4.21017 21.9756 4.29429 21.9144 4.39843C21.8532 4.50257 21.8236 4.62225 21.8291 4.74292C21.8346 4.86359 21.8751 4.98006 21.9456 5.07817C21.9826 5.12875 25.5545 10.2225 24.3379 18.32C23.4466 24.2509 18.7088 27.7515 18.6618 27.7863C18.5657 27.8557 18.4914 27.951 18.4476 28.0611C18.4038 28.1712 18.3923 28.2914 18.4144 28.4078C18.4365 28.5242 18.4913 28.6319 18.5725 28.7183C18.6536 28.8046 18.7577 28.866 18.8724 28.8953C19.6309 29.0923 20.411 29.1931 21.1946 29.1955C25.9902 29.1955 28.8174 25.2545 29.0184 24.9645C29.7944 23.8987 30.9586 23.1755 32.486 22.8032C31.0799 24.9078 30.0318 27.2307 29.3844 29.6776C29.1348 30.6835 28.7136 31.6387 28.1392 32.5013C27.7541 33.0793 27.2939 33.6035 26.7706 34.0602C23.2775 34.0682 19.7879 33.8381 16.3261 33.3715C16.3172 33.3701 16.3083 33.369 16.2995 33.3681C7.53504 32.4341 4.24404 37.1064 4.10821 37.3058C4.05505 37.3838 4.02031 37.4729 4.0066 37.5663C3.9929 37.6597 4.00059 37.755 4.02909 37.845C5.01651 40.9631 6.61767 43.8521 8.73834 46.3421C11.0075 50.3161 15.3813 53.4879 18.661 55.4528C22.34 57.6567 27.6322 58.9094 30.8697 58.9094C34.6178 58.9007 38.3114 58.0111 41.6525 56.3124C42.8467 57.1143 44.907 58.0673 47.9618 58.0673C49.3463 58.0571 50.7247 57.8829 52.0683 57.5485C52.1836 57.5204 52.2885 57.4599 52.3707 57.3743C52.4529 57.2887 52.5089 57.1814 52.5323 57.065C52.5556 56.9487 52.5453 56.828 52.5025 56.7173C52.4597 56.6066 52.3862 56.5104 52.2906 56.44C52.2758 56.4291 50.7947 55.3218 49.5922 53.1008C49.5533 53.0288 49.5006 52.9651 49.437 52.9135C49.3735 52.8618 49.3005 52.8232 49.222 52.7998C49.1436 52.7764 49.0613 52.7687 48.9798 52.7771C48.8984 52.7855 48.8194 52.8099 48.7474 52.8489C48.6754 52.8878 48.6118 52.9406 48.5602 53.0041C48.5086 53.0677 48.47 53.1408 48.4466 53.2192C48.4233 53.2977 48.4156 53.38 48.4241 53.4614C48.4325 53.5428 48.457 53.6218 48.496 53.6938C49.0626 54.7471 49.7699 55.7185 50.5983 56.5812C46.8924 57.2268 44.4021 56.4458 42.9272 55.6307C47.9182 52.7921 51.2259 48.8569 52.618 46.9823C52.8572 46.9949 53.1009 47.0024 53.3492 47.0024C54.9197 47.0168 56.4766 46.7109 57.9249 46.1034C60.9968 44.7856 63.2693 42.0695 64.6788 38.0307C64.7166 37.9221 64.7237 37.8052 64.6992 37.6929C64.6747 37.5806 64.6196 37.4772 64.5401 37.3942C64.4605 37.3113 64.3596 37.2519 64.2484 37.2227C64.1372 37.1935 64.0201 37.1956 63.91 37.2287L63.9115 37.2302ZM30.8688 57.6635C28.4386 57.6635 22.7922 56.4751 19.3016 54.3838C16.2533 52.5576 12.2293 49.6625 10.0369 46.0912C11.1422 45.1927 14.9685 42.8033 21.2555 46.2746C21.3949 46.3487 24.7239 48.109 29.7157 48.9488C34.2709 49.715 41.0974 49.8061 47.8949 45.9672C48.9497 46.3745 50.0458 46.6653 51.1638 46.8342C48.5136 50.2067 41.452 57.6635 30.8688 57.6635ZM57.4433 44.9559C53.0107 46.8633 48.1586 44.7291 48.11 44.7072C48.0199 44.6657 47.9211 44.6467 47.822 44.6518C47.7229 44.6569 47.6265 44.686 47.5412 44.7365C40.9912 48.5382 34.368 48.4609 29.9653 47.7269C25.1636 46.9265 21.8759 45.1931 21.8509 45.1797C17.5172 42.787 14.2168 42.9944 12.2102 43.5895C11.1551 43.8963 10.1685 44.4026 9.30405 45.0809C7.56267 42.8956 6.21402 40.4245 5.31819 37.7778C6.06918 36.8924 9.18231 33.8657 16.1544 34.605C16.714 34.6885 26.02 36.0384 33.8835 34.7825C34.0447 34.7542 34.1883 34.6636 34.2833 34.5304C34.3782 34.3971 34.417 34.2318 34.3912 34.0702C34.3654 33.9086 34.2771 33.7637 34.1453 33.6666C34.0135 33.5696 33.8489 33.5283 33.6869 33.5516C31.9856 33.8124 30.27 33.9698 28.5496 34.023C28.7709 33.7594 28.9783 33.4845 29.1711 33.1995C29.8258 32.2184 30.3064 31.1316 30.5916 29.9871C31.1558 27.7939 33.4647 20.7314 40.2837 17.6672C39.3993 20.3659 38.0459 26.4196 42.269 29.6569C41.518 30.6182 40.4185 31.4301 38.9728 32.0811C38.8982 32.1147 38.8309 32.1627 38.7748 32.2223C38.7187 32.2819 38.675 32.3519 38.646 32.4284C38.617 32.505 38.6033 32.5865 38.6058 32.6683C38.6083 32.7501 38.6269 32.8306 38.6605 32.9052C38.6941 32.9798 38.742 33.0471 38.8017 33.1031C38.8613 33.1592 38.9313 33.203 39.0078 33.232C39.0844 33.261 39.1658 33.2747 39.2476 33.2722C39.3294 33.2697 39.41 33.2511 39.4846 33.2175C42.2994 31.9501 43.9985 30.1077 44.5346 27.7413C44.5368 27.7319 44.5388 27.7228 44.5403 27.7128C44.5588 27.6112 44.9561 25.2009 42.5493 23.2894C42.4199 23.1866 42.2549 23.1395 42.0906 23.1583C41.9264 23.1772 41.7763 23.2605 41.6735 23.39C41.5707 23.5194 41.5236 23.6844 41.5424 23.8487C41.5613 24.0129 41.6446 24.1629 41.7741 24.2657C43.529 25.6592 43.3368 27.3301 43.3148 27.4849C43.2266 27.8665 43.0976 28.2375 42.9299 28.5914C40.3234 26.4913 40.3914 22.8942 40.915 20.2276C41.807 20.3379 42.9933 20.5128 44.1968 20.7739C44.2035 20.7755 44.211 20.777 44.2179 20.7783C46.3027 21.2311 48.2939 22.0397 50.1041 23.1686C53.8808 25.5697 55.716 28.9381 55.5587 33.1802C55.5121 34.3784 55.2991 35.5642 54.9259 36.7036C54.4461 36.5093 53.979 36.2847 53.5276 36.0312C53.3835 35.9501 53.2131 35.9296 53.0539 35.9741C52.8946 36.0187 52.7596 36.1247 52.6785 36.2688C52.5974 36.4129 52.5769 36.5834 52.6215 36.7426C52.6661 36.9018 52.7721 37.0368 52.9162 37.1179C56.9424 39.3802 61.1101 39.045 63.0934 38.6907C61.8003 41.792 59.9027 43.8971 57.4433 44.9555V44.9559Z" fill="#408F95"/>
<path d="M22.5986 38.1344L21.85 38.4341C21.7736 38.4642 21.7038 38.5091 21.6448 38.5662C21.5858 38.6233 21.5387 38.6915 21.5061 38.767C21.4735 38.8424 21.4562 38.9235 21.4551 39.0056C21.454 39.0877 21.4692 39.1693 21.4997 39.2455C21.5303 39.3218 21.5756 39.3912 21.633 39.4499C21.6905 39.5086 21.759 39.5554 21.8346 39.5875C21.9102 39.6196 21.9914 39.6364 22.0736 39.637C22.1557 39.6376 22.2371 39.622 22.3132 39.591L23.0618 39.2914C23.1382 39.2613 23.208 39.2164 23.267 39.1593C23.326 39.1022 23.3731 39.0339 23.4057 38.9585C23.4382 38.8831 23.4556 38.802 23.4566 38.7199C23.4577 38.6378 23.4426 38.5562 23.4121 38.48C23.3815 38.4037 23.3362 38.3342 23.2788 38.2756C23.2213 38.2169 23.1528 38.1701 23.0772 38.138C23.0016 38.1059 22.9204 38.0891 22.8382 38.0885C22.7561 38.0878 22.6746 38.1035 22.5986 38.1344Z" fill="#408F95"/>
<path d="M35.267 39.1187C35.332 38.9686 35.3354 38.799 35.2765 38.6464C35.2175 38.4938 35.101 38.3705 34.9519 38.3031C34.8029 38.2357 34.6333 38.2295 34.4798 38.286C34.3263 38.3425 34.2011 38.457 34.1313 38.6049C34.0737 38.7317 32.7485 41.7364 35.1034 44.2444C35.2207 44.3573 35.3758 44.4227 35.5385 44.4279C35.7013 44.433 35.8602 44.3775 35.9844 44.2721C36.0442 44.2162 36.0923 44.149 36.126 44.0744C36.1597 43.9998 36.1784 43.9193 36.181 43.8375C36.1836 43.7556 36.17 43.6741 36.1411 43.5976C36.1121 43.521 36.0683 43.4509 36.0122 43.3913C34.2401 41.5039 35.2218 39.2207 35.267 39.1187Z" fill="#408F95"/>
<path d="M38.8194 38.4285C38.8876 38.278 38.8931 38.1065 38.8349 37.9518C38.7766 37.7971 38.6593 37.672 38.5087 37.6038C38.3581 37.5356 38.1866 37.5301 38.032 37.5884C37.8773 37.6466 37.7521 37.764 37.684 37.9145C37.6265 38.0413 36.3011 41.046 38.6562 43.554C38.779 43.6848 39.3047 43.7793 39.5373 43.5818C39.5982 43.5265 39.6473 43.4595 39.6818 43.3849C39.7163 43.3102 39.7354 43.2294 39.738 43.1472C39.7406 43.065 39.7266 42.9831 39.6969 42.9065C39.6672 42.8298 39.6223 42.7599 39.5651 42.7009C37.7936 40.8144 38.7735 38.5327 38.8194 38.4285Z" fill="#408F95"/>
<path d="M42.0258 37.0999C42.0908 36.9498 42.0942 36.7802 42.0352 36.6276C41.9763 36.475 41.8598 36.3517 41.7107 36.2843C41.5617 36.2169 41.3921 36.2107 41.2386 36.2672C41.0851 36.3237 40.9599 36.4382 40.8901 36.5861C40.8325 36.7129 39.5072 39.7176 41.8622 42.2257C41.9848 42.3566 42.506 42.4666 42.743 42.2535C42.8033 42.1979 42.8518 42.1308 42.8859 42.0562C42.92 41.9815 42.9388 41.9009 42.9414 41.8189C42.944 41.7369 42.9303 41.6553 42.901 41.5786C42.8717 41.502 42.8274 41.432 42.7708 41.3726C40.9979 39.4843 41.9817 37.1993 42.0258 37.0999Z" fill="#408F95"/>
</g>
<defs>
<filter id="filter0_dd_11964_16657" x="-1.14258" y="0" width="71" height="71" filterUnits="userSpaceOnUse" color-interpolation-filters="sRGB">
<feFlood flood-opacity="0" result="BackgroundImageFix"/>
<feColorMatrix in="SourceAlpha" type="matrix" values="0 0 0 0 0 0 0 0 0 0 0 0 0 0 0 0 0 0 127 0" result="hardAlpha"/>
<feOffset dy="4"/>
<feGaussianBlur stdDeviation="2"/>
<feComposite in2="hardAlpha" operator="out"/>
<feColorMatrix type="matrix" values="0 0 0 0 0 0 0 0 0 0 0 0 0 0 0 0 0 0 0.25 0"/>
<feBlend mode="normal" in2="BackgroundImageFix" result="effect1_dropShadow_11964_16657"/>
<feColorMatrix in="SourceAlpha" type="matrix" values="0 0 0 0 0 0 0 0 0 0 0 0 0 0 0 0 0 0 127 0" result="hardAlpha"/>
<feOffset dy="4"/>
<feGaussianBlur stdDeviation="2"/>
<feComposite in2="hardAlpha" operator="out"/>
<feColorMatrix type="matrix" values="0 0 0 0 0 0 0 0 0 0 0 0 0 0 0 0 0 0 0.25 0"/>
<feBlend mode="normal" in2="effect1_dropShadow_11964_16657" result="effect2_dropShadow_11964_16657"/>
<feBlend mode="normal" in="SourceGraphic" in2="effect2_dropShadow_11964_16657" result="shape"/>
</filter>
</defs>
</svg>
